<svg width="24" height="24" viewBox="0 0 24 24" fill="none" xmlns="http://www.w3.org/2000/svg">
<path fill-rule="evenodd" clip-rule="evenodd" d="M16.25 5.32227C16.25 5.73227 16.59 6.07227 17 6.07227C17.41 6.07227 17.75 5.73227 17.75 5.32227V4.78827C18.431 4.92627 18.93 5.15227 19.3 5.52227C19.832 6.05427 20.066 6.85027 20.17 8.07227H3.83C3.934 6.85027 4.168 6.05427 4.7 5.52227C5.07 5.15227 5.569 4.92627 6.25 4.78827V5.32227C6.25 5.73227 6.59 6.07227 7 6.07227C7.41 6.07227 7.75 5.73227 7.75 5.32227V4.62027C8.626 4.57327 9.694 4.57327 11 4.57327H13C14.306 4.57327 15.374 4.57327 16.25 4.62027V5.32227ZM3.763 9.57227H20.237C20.25 10.2313 20.25 10.9763 20.25 11.8223V14.3223C20.25 17.8823 20.25 19.6723 19.3 20.6223C18.35 21.5723 16.56 21.5723 13 21.5723H11C7.44 21.5723 5.65 21.5723 4.7 20.6223C3.75 19.6723 3.75 17.8823 3.75 14.3223V11.8223C3.75 10.9763 3.75 10.2313 3.763 9.57227ZM17.75 3.26227V2.32227C17.75 1.91227 17.41 1.57227 17 1.57227C16.59 1.57227 16.25 1.91227 16.25 2.32227V3.11827C15.34 3.07227 14.271 3.07227 13 3.07227H11C9.729 3.07227 8.66 3.07227 7.75 3.11827V2.32227C7.75 1.91227 7.41 1.57227 7 1.57227C6.59 1.57227 6.25 1.91227 6.25 2.32227V3.26227C5.132 3.44027 4.315 3.78727 3.64 4.46227C2.25 5.85227 2.25 7.84227 2.25 11.8223V14.3223C2.25 18.3023 2.25 20.2923 3.64 21.6823C5.03 23.0723 7.02 23.0723 11 23.0723H13C16.98 23.0723 18.97 23.0723 20.36 21.6823C21.75 20.2923 21.75 18.3023 21.75 14.3223V11.8223C21.75 7.84227 21.75 5.85227 20.36 4.46227C19.685 3.78727 18.868 3.44027 17.75 3.26227ZM10.93 18.5723H11C11.27 18.5723 11.53 18.4223 11.66 18.1823L11.67 18.1653C11.83 17.8853 13.83 14.3903 16.25 13.5323C16.64 13.3923 16.85 12.9623 16.71 12.5723C16.6434 12.3842 16.505 12.2301 16.325 12.1439C16.1451 12.0577 15.9383 12.0463 15.75 12.1123C13.65 12.8623 11.92 15.0223 11.02 16.3623C10.26 15.4623 9.29 15.1323 9.23 15.1123C9.13744 15.081 9.0396 15.0683 8.94212 15.075C8.84465 15.0818 8.74947 15.1077 8.66208 15.1514C8.57468 15.1951 8.49681 15.2557 8.43295 15.3296C8.36909 15.4036 8.3205 15.4894 8.29 15.5823C8.15 15.9723 8.36 16.3923 8.75 16.5323L8.769 16.5413C8.922 16.6053 9.936 17.0323 10.279 18.0623C10.379 18.3423 10.629 18.5423 10.929 18.5723" fill="#C28831"/>
</svg>
