<svg width="31" height="30" viewBox="0 0 31 30" fill="none" xmlns="http://www.w3.org/2000/svg">
<mask id="path-1-outside-1_2602_241" maskUnits="userSpaceOnUse" x="10" y="10" width="12" height="10" fill="black">
<rect fill="white" x="10" y="10" width="12" height="10"/>
<path d="M21 14.7415L19.5819 13.3911L21 14.7415ZM18.7077 12.5667V12.559L17.0701 11V12.2928M17.0701 13.2832C15.8775 13.2787 14.7225 13.6803 13.8135 14.4155L17.0701 13.2832ZM12.8754 15.3002C11.9777 16.3904 11.338 17.6525 11.0002 19C10.9816 18.9914 12.2397 16.3944 15.9968 16.1922M21 14.7415L19.5815 16.0919L21 14.7415ZM18.7077 16.9159V16.9236L17.0701 18.4826V16.189"/>
</mask>
<path d="M21 14.7415L21.4826 15.2485C21.6214 15.1164 21.7 14.9332 21.7 14.7416C21.7 14.55 21.6215 14.3667 21.4827 14.2346L21 14.7415ZM20.0647 12.8842C19.7847 12.6176 19.3416 12.6284 19.075 12.9084C18.8084 13.1883 18.8192 13.6314 19.0992 13.898L19.5819 13.3911L20.0647 12.8842ZM18.0077 12.5667C18.0077 12.9533 18.3211 13.2667 18.7077 13.2667C19.0943 13.2667 19.4077 12.9533 19.4077 12.5667H18.7077H18.0077ZM18.7077 12.559H19.4077C19.4077 12.3674 19.3291 12.1841 19.1903 12.052L18.7077 12.559ZM17.0701 11L17.5527 10.493C17.3499 10.2999 17.0516 10.2463 16.7943 10.3566C16.5369 10.4669 16.3701 10.72 16.3701 11H17.0701ZM16.3701 12.2928C16.3701 12.6794 16.6835 12.9928 17.0701 12.9928C17.4567 12.9928 17.7701 12.6794 17.7701 12.2928H17.0701H16.3701ZM17.0674 13.9832C17.454 13.9846 17.7686 13.6724 17.7701 13.2858C17.7715 12.8992 17.4593 12.5847 17.0727 12.5832L17.0701 13.2832L17.0674 13.9832ZM13.3733 13.8712C13.0727 14.1144 13.0261 14.5551 13.2692 14.8557C13.5123 15.1563 13.9531 15.2029 14.2537 14.9597L13.8135 14.4155L13.3733 13.8712ZM13.4158 15.7452C13.6615 15.4467 13.6188 15.0056 13.3204 14.7598C13.0219 14.5141 12.5808 14.5568 12.335 14.8552L12.8754 15.3002L13.4158 15.7452ZM11.0002 19L10.7056 19.635C10.8949 19.7228 11.1135 19.7216 11.3018 19.6317C11.4901 19.5418 11.6285 19.3726 11.6792 19.1702L11.0002 19ZM16.0344 16.8911C16.4204 16.8704 16.7165 16.5406 16.6958 16.1545C16.675 15.7685 16.3452 15.4724 15.9591 15.4932L15.9968 16.1922L16.0344 16.8911ZM19.0988 15.5849C18.8188 15.8515 18.8079 16.2946 19.0745 16.5746C19.341 16.8546 19.7841 16.8655 20.0641 16.5989L19.5815 16.0919L19.0988 15.5849ZM19.4077 16.9159C19.4077 16.5293 19.0943 16.2159 18.7077 16.2159C18.3211 16.2159 18.0077 16.5293 18.0077 16.9159H18.7077H19.4077ZM18.7077 16.9236L19.1903 17.4306C19.3291 17.2985 19.4077 17.1152 19.4077 16.9236H18.7077ZM17.0701 18.4826H16.3701C16.3701 18.7626 16.5369 19.0157 16.7943 19.126C17.0516 19.2363 17.3499 19.1826 17.5527 18.9896L17.0701 18.4826ZM17.7701 16.189C17.7701 15.8024 17.4567 15.489 17.0701 15.489C16.6835 15.489 16.3701 15.8024 16.3701 16.189H17.0701H17.7701ZM21 14.7415L21.4827 14.2346L20.0647 12.8842L19.5819 13.3911L19.0992 13.898L20.5173 15.2484L21 14.7415ZM18.7077 12.5667H19.4077V12.559H18.7077H18.0077V12.5667H18.7077ZM18.7077 12.559L19.1903 12.052L17.5527 10.493L17.0701 11L16.5874 11.507L18.225 13.066L18.7077 12.559ZM17.0701 11H16.3701V12.2928H17.0701H17.7701V11H17.0701ZM17.0701 13.2832L17.0727 12.5832C15.7225 12.5781 14.4103 13.0325 13.3733 13.8712L13.8135 14.4155L14.2537 14.9597C15.0347 14.3281 16.0325 13.9793 17.0674 13.9832L17.0701 13.2832ZM12.8754 15.3002L12.335 14.8552C11.3724 16.0242 10.6847 17.3798 10.3212 18.8298L11.0002 19L11.6792 19.1702C11.9913 17.9251 12.5829 16.7566 13.4158 15.7452L12.8754 15.3002ZM11.0002 19L11.2948 18.365C11.5482 18.4826 11.6408 18.6991 11.6708 18.7997C11.7013 18.9018 11.7007 18.9861 11.6997 19.0202C11.6975 19.094 11.6837 19.1501 11.6802 19.1642C11.6704 19.2041 11.6593 19.2333 11.6572 19.2387C11.6532 19.2494 11.65 19.2569 11.6488 19.2598C11.648 19.2616 11.6474 19.2629 11.647 19.2637C11.6467 19.2645 11.6464 19.265 11.6464 19.2651C11.6464 19.2651 11.6468 19.2642 11.6478 19.2621C11.6488 19.2601 11.6503 19.2573 11.6521 19.2536C11.6559 19.2463 11.6611 19.2364 11.668 19.224C11.6957 19.1739 11.7447 19.0921 11.8176 18.9884C11.9633 18.7809 12.1986 18.4936 12.5403 18.1983C13.2165 17.614 14.3256 16.9831 16.0344 16.8911L15.9968 16.1922L15.9591 15.4932C13.9109 15.6034 12.5124 16.3721 11.6249 17.139C11.1848 17.5194 10.8743 17.8956 10.6719 18.1838C10.5707 18.3279 10.4952 18.4519 10.443 18.5463C10.4172 18.5928 10.3951 18.6359 10.3775 18.6735C10.3696 18.6904 10.3581 18.716 10.3473 18.7448C10.3432 18.7554 10.3308 18.7886 10.3204 18.8312C10.3166 18.8468 10.3025 18.9039 10.3003 18.9785C10.2993 19.0129 10.2987 19.0976 10.3292 19.1999C10.3593 19.3007 10.452 19.5174 10.7056 19.635L11.0002 19ZM21 14.7415L20.5173 14.2345L19.0988 15.5849L19.5815 16.0919L20.0641 16.5989L21.4826 15.2485L21 14.7415ZM18.7077 16.9159H18.0077V16.9236H18.7077H19.4077V16.9159H18.7077ZM18.7077 16.9236L18.225 16.4166L16.5874 17.9756L17.0701 18.4826L17.5527 18.9896L19.1903 17.4306L18.7077 16.9236ZM17.0701 18.4826H17.7701V16.189H17.0701H16.3701V18.4826H17.0701Z" fill="#C28831" mask="url(#path-1-outside-1_2602_241)"/>
<path d="M16 4C22.0751 4 27 8.92487 27 15C27 21.0751 22.0751 26 16 26C9.92487 26 5 21.0751 5 15C5 8.92487 9.92487 4 16 4Z" stroke="#C28831" stroke-width="2" stroke-linecap="round" stroke-linejoin="round"/>
</svg>
