<svg width="24" height="24" viewBox="0 0 24 24" fill="none" xmlns="http://www.w3.org/2000/svg">
<path d="M22.4004 7.25879L22.541 7.40039L22.3994 7.54102L12.4912 17.4492L12.3506 17.5908L7.10938 12.3496L7.25 12.209L7.95801 11.4951L8.09961 11.3535L12.3496 15.6035L21.4092 6.54492L21.5508 6.40332L22.4004 7.25879ZM6.70605 15.6084L7.25684 15.0576L7.39844 14.917L7.54004 15.0576L8.24805 15.7656L8.38965 15.9082L8.24707 16.0488L6.84082 17.4492L6.7002 17.5898L6.55859 17.4492L1.60059 12.4912L1.45898 12.3486L1.60156 12.207L2.31543 11.499L2.45703 11.3594L6.70605 15.6084ZM16.0352 6.5498L16.749 7.25781L16.8916 7.39941L11.6592 12.6318L11.5176 12.4912L10.8037 11.7832L10.6611 11.6426L10.8027 11.5L15.8936 6.40918L16.0352 6.5498Z" fill="#C28831" stroke="#C28831" stroke-width="0.4"/>
</svg>
