<svg width="22" height="22" viewBox="0 0 22 22" fill="none" xmlns="http://www.w3.org/2000/svg">
<path d="M6.41797 20.166H15.5846" stroke="#C28831" stroke-width="1.5" stroke-linecap="round" stroke-linejoin="round"/>
<path d="M1.83398 15.583V3.66634C1.83398 3.18011 2.02714 2.7138 2.37096 2.36998C2.71477 2.02616 3.18109 1.83301 3.66732 1.83301H18.334C18.8202 1.83301 19.2865 2.02616 19.6303 2.36998C19.9742 2.7138 20.1673 3.18011 20.1673 3.66634V15.583C20.1673 16.0692 19.9742 16.5356 19.6303 16.8794C19.2865 17.2232 18.8202 17.4163 18.334 17.4163H3.66732C3.18109 17.4163 2.71477 17.2232 2.37096 16.8794C2.02714 16.5356 1.83398 16.0692 1.83398 15.583Z" stroke="#C28831" stroke-width="1.5"/>
<path d="M8.25 9.62435L10.0833 11.4577L13.75 7.79102" stroke="#C28831" stroke-width="1.5" stroke-linecap="round" stroke-linejoin="round"/>
</svg>
