<svg width="22" height="22" viewBox="0 0 22 22" fill="none" xmlns="http://www.w3.org/2000/svg">
<g clip-path="url(#clip0_2602_217)">
<path d="M21.1241 20.1548C21.1916 20.2182 21.2456 20.2946 21.2829 20.3794C21.3201 20.4642 21.3398 20.5556 21.3408 20.6483C21.3419 20.7409 21.3242 20.8327 21.2888 20.9183C21.2534 21.0039 21.2011 21.0815 21.135 21.1464C21.0689 21.2113 20.9904 21.2622 20.9042 21.2959C20.8179 21.3297 20.7258 21.3457 20.6332 21.343C20.5406 21.3403 20.4495 21.3189 20.3654 21.2801C20.2813 21.2413 20.2059 21.1859 20.1438 21.1173L16.06 16.9606C15.9342 16.8319 15.8639 16.659 15.8642 16.4791C15.8644 16.2991 15.9352 16.1265 16.0614 15.9981C16.9301 15.1151 17.4662 13.9585 17.5788 12.7249C17.6914 11.4913 17.3735 10.2568 16.679 9.23109C15.9846 8.20536 14.9564 7.45169 13.7692 7.0981C12.5821 6.74452 11.3091 6.81284 10.1666 7.29146C9.02406 7.77007 8.08247 8.62946 7.50178 9.72363C6.92109 10.8178 6.7371 12.0793 6.98108 13.2937C7.22505 14.5081 7.88194 15.6007 8.84015 16.3857C9.79836 17.1707 10.9988 17.5998 12.2375 17.6C12.3303 17.5958 12.4229 17.6105 12.5099 17.6432C12.5968 17.6758 12.6763 17.7257 12.7434 17.7899C12.8105 17.8541 12.8639 17.9312 12.9004 18.0166C12.9369 18.102 12.9557 18.1939 12.9557 18.2868C12.9557 18.3797 12.9369 18.4716 12.9004 18.557C12.8639 18.6424 12.8105 18.7195 12.7434 18.7837C12.6763 18.8479 12.5968 18.8978 12.5099 18.9304C12.4229 18.9631 12.3303 18.9778 12.2375 18.9736C10.7102 18.9738 9.22826 18.455 8.03449 17.5024C6.84073 16.5498 6.00603 15.2199 5.66724 13.7307C5.32845 12.2415 5.50567 10.6814 6.16984 9.30611C6.83402 7.93083 7.94574 6.82202 9.32275 6.16144C10.6998 5.50087 12.2603 5.32773 13.7486 5.67042C15.237 6.01311 16.5647 6.85129 17.5142 8.04754C18.4636 9.24379 18.9785 10.7271 18.9744 12.2544C18.9702 13.7816 18.4473 15.2622 17.4914 16.4532L21.1241 20.1548ZM4.25425 17.875C4.43659 17.875 4.61145 17.9474 4.74039 18.0764C4.86932 18.2053 4.94175 18.3802 4.94175 18.5625C4.94175 18.7448 4.86932 18.9197 4.74039 19.0486C4.61145 19.1776 4.43659 19.25 4.25425 19.25H3.4375C2.52582 19.25 1.65148 18.8878 1.00682 18.2432C0.362164 17.5985 0 16.7242 0 15.8125L0 3.4375C0 2.52582 0.362164 1.65148 1.00682 1.00682C1.65148 0.362164 2.52582 0 3.4375 0L15.8125 0C16.7242 0 17.5985 0.362164 18.2432 1.00682C18.8878 1.65148 19.25 2.52582 19.25 3.4375V4.26113C19.25 4.44346 19.1776 4.61833 19.0486 4.74726C18.9197 4.87619 18.7448 4.94863 18.5625 4.94863C18.3802 4.94863 18.2053 4.87619 18.0764 4.74726C17.9474 4.61833 17.875 4.44346 17.875 4.26113V3.4375C17.875 2.89049 17.6577 2.36589 17.2709 1.97909C16.8841 1.5923 16.3595 1.375 15.8125 1.375H3.4375C2.89049 1.375 2.36589 1.5923 1.97909 1.97909C1.5923 2.36589 1.375 2.89049 1.375 3.4375V15.8125C1.375 16.3595 1.5923 16.8841 1.97909 17.2709C2.36589 17.6577 2.89049 17.875 3.4375 17.875H4.25425ZM3.4375 4.125C3.25516 4.125 3.0803 4.05257 2.95136 3.92364C2.82243 3.7947 2.75 3.61984 2.75 3.4375C2.75 3.25516 2.82243 3.0803 2.95136 2.95136C3.0803 2.82243 3.25516 2.75 3.4375 2.75C3.61984 2.75 3.7947 2.82243 3.92364 2.95136C4.05257 3.0803 4.125 3.25516 4.125 3.4375C4.125 3.61984 4.05257 3.7947 3.92364 3.92364C3.7947 4.05257 3.61984 4.125 3.4375 4.125ZM6.1875 4.125C6.00516 4.125 5.8303 4.05257 5.70136 3.92364C5.57243 3.7947 5.5 3.61984 5.5 3.4375C5.5 3.25516 5.57243 3.0803 5.70136 2.95136C5.8303 2.82243 6.00516 2.75 6.1875 2.75C6.36984 2.75 6.5447 2.82243 6.67364 2.95136C6.80257 3.0803 6.875 3.25516 6.875 3.4375C6.875 3.61984 6.80257 3.7947 6.67364 3.92364C6.5447 4.05257 6.36984 4.125 6.1875 4.125ZM8.9375 4.125C8.75516 4.125 8.5803 4.05257 8.45136 3.92364C8.32243 3.7947 8.25 3.61984 8.25 3.4375C8.25 3.25516 8.32243 3.0803 8.45136 2.95136C8.5803 2.82243 8.75516 2.75 8.9375 2.75C9.11984 2.75 9.29471 2.82243 9.42364 2.95136C9.55257 3.0803 9.625 3.25516 9.625 3.4375C9.625 3.61984 9.55257 3.7947 9.42364 3.92364C9.29471 4.05257 9.11984 4.125 8.9375 4.125ZM3.4375 6.875C3.25516 6.875 3.0803 6.80257 2.95136 6.67364C2.82243 6.5447 2.75 6.36984 2.75 6.1875C2.75 6.00516 2.82243 5.8303 2.95136 5.70136C3.0803 5.57243 3.25516 5.5 3.4375 5.5C3.61984 5.5 3.7947 5.57243 3.92364 5.70136C4.05257 5.8303 4.125 6.00516 4.125 6.1875C4.125 6.36984 4.05257 6.5447 3.92364 6.67364C3.7947 6.80257 3.61984 6.875 3.4375 6.875ZM6.1875 6.875C6.00516 6.875 5.8303 6.80257 5.70136 6.67364C5.57243 6.5447 5.5 6.36984 5.5 6.1875C5.5 6.00516 5.57243 5.8303 5.70136 5.70136C5.8303 5.57243 6.00516 5.5 6.1875 5.5C6.36984 5.5 6.5447 5.57243 6.67364 5.70136C6.80257 5.8303 6.875 6.00516 6.875 6.1875C6.875 6.36984 6.80257 6.5447 6.67364 6.67364C6.5447 6.80257 6.36984 6.875 6.1875 6.875ZM3.4375 8.25C3.61984 8.25 3.7947 8.32243 3.92364 8.45136C4.05257 8.5803 4.125 8.75516 4.125 8.9375C4.125 9.11984 4.05257 9.2947 3.92364 9.42364C3.7947 9.55257 3.61984 9.625 3.4375 9.625C3.25516 9.625 3.0803 9.55257 2.95136 9.42364C2.82243 9.2947 2.75 9.11984 2.75 8.9375C2.75 8.75516 2.82243 8.5803 2.95136 8.45136C3.0803 8.32243 3.25516 8.25 3.4375 8.25ZM3.4375 12.375C3.25516 12.375 3.0803 12.3026 2.95136 12.1736C2.82243 12.0447 2.75 11.8698 2.75 11.6875C2.75 11.5052 2.82243 11.3303 2.95136 11.2014C3.0803 11.0724 3.25516 11 3.4375 11C3.61984 11 3.7947 11.0724 3.92364 11.2014C4.05257 11.3303 4.125 11.5052 4.125 11.6875C4.125 11.8698 4.05257 12.0447 3.92364 12.1736C3.7947 12.3026 3.61984 12.375 3.4375 12.375ZM11.6875 4.125C11.5052 4.125 11.3303 4.05257 11.2014 3.92364C11.0724 3.7947 11 3.61984 11 3.4375C11 3.25516 11.0724 3.0803 11.2014 2.95136C11.3303 2.82243 11.5052 2.75 11.6875 2.75C11.8698 2.75 12.0447 2.82243 12.1736 2.95136C12.3026 3.0803 12.375 3.25516 12.375 3.4375C12.375 3.61984 12.3026 3.7947 12.1736 3.92364C12.0447 4.05257 11.8698 4.125 11.6875 4.125ZM14.4375 4.125C14.2552 4.125 14.0803 4.05257 13.9514 3.92364C13.8224 3.7947 13.75 3.61984 13.75 3.4375C13.75 3.25516 13.8224 3.0803 13.9514 2.95136C14.0803 2.82243 14.2552 2.75 14.4375 2.75C14.6198 2.75 14.7947 2.82243 14.9236 2.95136C15.0526 3.0803 15.125 3.25516 15.125 3.4375C15.125 3.61984 15.0526 3.7947 14.9236 3.92364C14.7947 4.05257 14.6198 4.125 14.4375 4.125ZM3.4375 15.125C3.25516 15.125 3.0803 15.0526 2.95136 14.9236C2.82243 14.7947 2.75 14.6198 2.75 14.4375C2.75 14.2552 2.82243 14.0803 2.95136 13.9514C3.0803 13.8224 3.25516 13.75 3.4375 13.75C3.61984 13.75 3.7947 13.8224 3.92364 13.9514C4.05257 14.0803 4.125 14.2552 4.125 14.4375C4.125 14.6198 4.05257 14.7947 3.92364 14.9236C3.7947 15.0526 3.61984 15.125 3.4375 15.125Z" fill="#C28831"/>
</g>
<defs>
<clipPath id="clip0_2602_217">
<rect width="22" height="22" fill="white"/>
</clipPath>
</defs>
</svg>
