<svg width="21" height="16" viewBox="0 0 21 16" fill="none" xmlns="http://www.w3.org/2000/svg">
<g clip-path="url(#clip0_2602_232)">
<path d="M20.249 -0.200195C20.7729 -0.200059 21.1992 0.226127 21.1992 0.75V5.77441C21.1992 5.98033 21.1435 6.2045 21.0576 6.40625C20.9722 6.60664 20.8494 6.7992 20.7021 6.94141L20.7031 6.94238L13.6621 13.9287L13.6592 13.9316L13.5205 13.7871L13.6582 13.9316C13.4763 14.1048 13.2345 14.2012 12.9834 14.1992C12.7322 14.1972 12.4916 14.097 12.3125 13.9209L10.9873 12.5957L10.9854 12.5928C10.9034 12.5079 10.8574 12.3944 10.8584 12.2764C10.8594 12.1584 10.9068 12.0453 10.9902 11.9619C11.0737 11.8785 11.1867 11.8311 11.3047 11.8301C11.3933 11.8293 11.4794 11.855 11.5527 11.9023L11.6211 11.957L11.624 11.959L12.9443 13.2803C12.9566 13.292 12.9732 13.2986 12.9902 13.2988C13.0072 13.299 13.0236 13.2927 13.0361 13.2812L20.0713 6.30078L20.0732 6.29883C20.1228 6.25123 20.1818 6.16182 20.2285 6.05273C20.2754 5.94339 20.2988 5.84025 20.2988 5.77441V0.75C20.2988 0.736797 20.2935 0.724207 20.2842 0.714844C20.2749 0.705526 20.2622 0.700262 20.249 0.700195H15.249C15.1829 0.700195 15.0798 0.724 14.9707 0.770508C14.8616 0.817045 14.7733 0.87513 14.7275 0.922852L14.7246 0.924805L14.0576 1.59766C13.9736 1.68243 13.8596 1.73085 13.7402 1.73145C13.6811 1.73174 13.6221 1.71961 13.5674 1.69727C13.5129 1.67492 13.4628 1.64204 13.4209 1.60059C13.3791 1.55906 13.3461 1.50943 13.3232 1.45508C13.3004 1.40061 13.2884 1.34227 13.2881 1.2832C13.2875 1.16383 13.334 1.0487 13.418 0.963867L14.083 0.293945C14.2243 0.147327 14.418 0.0255545 14.6182 -0.0595703C14.8195 -0.145122 15.0433 -0.200195 15.249 -0.200195H20.249Z" fill="#C28831" stroke="#C28831" stroke-width="0.4"/>
<path d="M13.2305 1.7998C13.7544 1.7998 14.1807 2.22604 14.1807 2.75V7.77441C14.1807 7.9806 14.1252 8.20443 14.0391 8.40625C13.9534 8.607 13.8303 8.80009 13.6826 8.94238L6.64258 15.9287L6.64062 15.9316C6.45881 16.1059 6.22203 16.2002 5.97266 16.2002C5.74788 16.2002 5.53424 16.124 5.36328 15.9834L5.29297 15.9199L0.078125 10.7051C-0.0978252 10.5268 -0.197724 10.2866 -0.200195 10.0361C-0.202544 9.78585 -0.106862 9.54486 0.0654297 9.36328L0.0683594 9.35938L7.06445 2.29395C7.20591 2.14739 7.39934 2.02557 7.59961 1.94043C7.80099 1.85484 8.02464 1.79982 8.23047 1.7998H13.2305ZM8.23047 2.7002C8.16426 2.70022 8.06123 2.72398 7.95215 2.77051C7.84309 2.81705 7.75476 2.87515 7.70898 2.92285L7.70703 2.9248L0.712891 9.9873C0.703892 9.99894 0.69898 10.0135 0.699219 10.0283C0.699505 10.0443 0.706018 10.0596 0.716797 10.0713L5.92578 15.2793C5.93867 15.2905 5.95551 15.2967 5.97266 15.2969C5.98927 15.297 6.00469 15.2907 6.01758 15.2803L13.0527 8.30078L13.0547 8.29883C13.1071 8.24847 13.1717 8.15597 13.2227 8.04688C13.2744 7.93613 13.2998 7.83578 13.2998 7.77441V2.75C13.2998 2.74679 13.2977 2.73568 13.2822 2.72168C13.2662 2.70725 13.246 2.7002 13.2305 2.7002H8.23047ZM18.5186 1.2998C19.1805 1.2998 19.7188 1.83804 19.7188 2.5C19.7188 3.16196 19.1805 3.7002 18.5186 3.7002C17.8566 3.70018 17.3184 3.16195 17.3184 2.5C17.3184 1.83805 17.8566 1.29982 18.5186 1.2998ZM18.4043 2.22168C18.3494 2.24446 18.3025 2.28355 18.2695 2.33301C18.2365 2.38247 18.2187 2.44054 18.2188 2.5L18.2246 2.56055C18.2527 2.6969 18.3739 2.7998 18.5186 2.7998C18.578 2.79986 18.6361 2.78202 18.6855 2.74902C18.735 2.71603 18.7741 2.66917 18.7969 2.61426C18.8195 2.55956 18.8249 2.49946 18.8135 2.44141C18.8019 2.38308 18.7735 2.32915 18.7314 2.28711C18.6894 2.24507 18.6355 2.21666 18.5771 2.20508C18.5191 2.19363 18.459 2.19908 18.4043 2.22168Z" fill="#C28831" stroke="#C28831" stroke-width="0.4"/>
<path d="M11.5 3.2998C12.162 3.2998 12.7002 3.83804 12.7002 4.5C12.7002 5.16196 12.162 5.7002 11.5 5.7002C10.838 5.7002 10.2998 5.16196 10.2998 4.5C10.2998 3.83804 10.838 3.2998 11.5 3.2998ZM11.5 4.20117C11.4262 4.20669 11.357 4.23849 11.3057 4.29199C11.2522 4.34791 11.2217 4.42263 11.2217 4.5C11.2217 4.57737 11.2522 4.65209 11.3057 4.70801C11.357 4.76149 11.4263 4.79232 11.5 4.79785C11.5737 4.79232 11.643 4.76149 11.6943 4.70801C11.7478 4.65209 11.7783 4.57737 11.7783 4.5C11.7783 4.42263 11.7478 4.34791 11.6943 4.29199C11.643 4.23849 11.5738 4.20669 11.5 4.20117Z" fill="#C28831" stroke="#C28831" stroke-width="0.4"/>
</g>
<defs>
<clipPath id="clip0_2602_232">
<rect width="21" height="16" fill="white"/>
</clipPath>
</defs>
</svg>
