<svg width="36" height="26" viewBox="0 0 36 26" fill="none" xmlns="http://www.w3.org/2000/svg">
<path d="M18.7981 0.126549C18.6573 0.0436915 18.4968 0 18.3334 0C18.1699 0 18.0095 0.0436915 17.8686 0.126549L1.49512 9.75797L2.42462 11.3383L18.3334 1.98005L34.2421 11.3392L35.1716 9.75888L29.3334 6.32505V1.83338C29.3334 1.59027 29.2368 1.35711 29.0649 1.1852C28.893 1.01329 28.6598 0.916717 28.4167 0.916717H25.6667C25.4236 0.916717 25.1904 1.01329 25.0185 1.1852C24.8466 1.35711 24.75 1.59027 24.75 1.83338V3.6273L18.7981 0.126549ZM9.1667 13.7501H19.25V19.25H9.1667V13.7501Z" fill="#C28831"/>
<path fill-rule="evenodd" clip-rule="evenodd" d="M18.3333 3.66699L5.5 11.0003V23.8337H0.916667C0.673551 23.8337 0.440394 23.9302 0.268486 24.1021C0.0965773 24.2741 0 24.5072 0 24.7503C0 24.9934 0.0965773 25.2266 0.268486 25.3985C0.440394 25.5704 0.673551 25.667 0.916667 25.667H33.9167C34.1598 25.667 34.3929 25.5704 34.5648 25.3985C34.7368 25.2266 34.8333 24.9934 34.8333 24.7503C34.8333 24.5072 34.7368 24.2741 34.5648 24.1021C34.3929 23.9302 34.1598 23.8337 33.9167 23.8337H31.1667V11.0003L18.3333 3.66699ZM18.3333 5.77808L7.33333 12.0646V23.8337H22V13.7503H27.5V23.8337H29.3333V12.0637L18.3333 5.77808Z" fill="#C28831"/>
</svg>
