<svg width="24" height="24" viewBox="0 0 24 24" fill="none" xmlns="http://www.w3.org/2000/svg">
<path d="M23.9351 23.2786L18.4351 13.2745C18.3486 13.111 18.1755 13.0244 17.9832 13.0148C17.8005 13.0244 17.6275 13.1303 17.5505 13.2938L15.6467 17.2377L10.0025 6.87776V5.00201H15.5025C15.7044 5.00201 15.8871 4.87696 15.964 4.69419C16.0409 4.51142 16.0025 4.29018 15.8582 4.14589L14.214 2.501L15.8582 0.856112C16.0025 0.711823 16.0409 0.5002 15.964 0.307815C15.8871 0.12505 15.7044 0 15.5025 0H9.50252C9.22368 0 9.00253 0.221243 9.00253 0.500201V6.87776L0.0602946 23.2689C-0.0262431 23.4229 -0.0166258 23.6152 0.069912 23.7595C0.15645 23.9038 0.319911 24 0.502602 24H18.5025H23.5024C23.6755 24 23.8389 23.9038 23.9351 23.7499C24.0216 23.6249 24.0216 23.4421 23.9351 23.2786ZM9.49291 8.06092L12.0506 12.7551L11.0506 13.7555L9.89675 12.2164C9.70445 11.9663 9.28137 11.9663 9.09868 12.2164L7.94485 13.7555L6.94485 12.7551L9.49291 8.06092Z" fill="#C28831"/>
</svg>
