<svg width="24" height="24" viewBox="0 0 24 24" fill="none" xmlns="http://www.w3.org/2000/svg">
<path d="M23.6629 15.0769L19.7913 2.73077C19.7913 2.73077 19.7913 2.73077 19.7913 2.72115C19.2782 1.09615 17.9636 0 16.5128 0C15.0619 0 13.7473 1.09615 13.2342 2.72115C13.09 3.19231 13.0098 3.69231 13.0098 4.20192V9.60577H11.0058V4.20192C11.0058 1.88461 9.43471 0 7.50288 0C6.052 0 4.73739 1.09615 4.22438 2.72115C4.22438 2.72115 4.22438 2.72115 4.22438 2.73077L0.352698 15.0769C0.120237 15.8269 0 16.6058 0 17.4038C0 21.0481 2.46889 24 5.4989 24C8.52891 24 10.9978 21.0385 10.9978 17.4038V16.8077H13.0018V17.4038C13.0018 21.0481 15.4707 24 18.5007 24C21.5307 24 23.9996 21.0385 23.9996 17.4038C24.0076 16.5962 23.8954 15.8173 23.6629 15.0769ZM5.50692 21.5962C3.57509 21.5962 2.00397 19.7115 2.00397 17.3942C2.00397 16.8846 2.07612 16.3846 2.22842 15.9135C2.74144 14.2885 4.05604 13.1923 5.50692 13.1923C7.43875 13.1923 9.00987 15.0769 9.00987 17.3942C9.00987 19.7115 7.43074 21.5962 5.50692 21.5962ZM18.5087 21.5962C16.5769 21.5962 15.0058 19.7115 15.0058 17.3942C15.0058 15.0769 16.5769 13.1923 18.5087 13.1923C19.9596 13.1923 21.2742 14.2885 21.7872 15.9135C21.9315 16.3846 22.0117 16.8846 22.0117 17.3942C22.0117 19.7115 20.4405 21.5962 18.5087 21.5962Z" fill="#C28831"/>
</svg>
