<svg width="24" height="24" viewBox="0 0 24 24" fill="none" xmlns="http://www.w3.org/2000/svg">
<path d="M21.5 12H19.389M19.389 12C19.389 13.9598 18.611 15.8389 17.2252 17.2247C15.8394 18.6105 13.9598 19.389 12 19.389M19.389 12C19.389 10.0402 18.611 8.16013 17.2252 6.77433C15.8394 5.38853 13.9598 4.611 12 4.611M12 2.5V4.611M12 4.611C10.0403 4.611 8.16089 5.38848 6.77519 6.77419C5.38948 8.15989 4.611 10.0393 4.611 11.999C4.611 13.9587 5.38948 15.8381 6.77519 17.2238C8.16089 18.6095 10.0403 19.389 12 19.389M2.5 12H4.611M12 21.5V19.389" stroke="#C28831" stroke-width="1.5" stroke-miterlimit="10" stroke-linecap="round"/>
<path d="M11.9993 16.2223C13.1191 16.2223 14.193 15.7775 14.9847 14.9857C15.7765 14.1939 16.2213 13.1201 16.2213 12.0003C16.2213 10.8806 15.7765 9.80669 14.9847 9.01492C14.193 8.22314 13.1191 7.77832 11.9993 7.77832C10.8796 7.77832 9.80572 8.22314 9.01394 9.01492C8.22216 9.80669 7.77734 10.8806 7.77734 12.0003C7.77734 13.1201 8.22216 14.1939 9.01394 14.9857C9.80572 15.7775 10.8796 16.2223 11.9993 16.2223Z" stroke="#C28831" stroke-width="1.5" stroke-miterlimit="10" stroke-linecap="round"/>
</svg>
